# xmcd
#
# Track frame offsets:
#	150
#	15367
#	35504
#	52071
#	68918
#	85302
#	93859
#	109286
#	127863
#	137190
#	162690
#
# Disc length: 2574 seconds
# Revision: 2
# Processed by: cddbd v1.5.2PL0 Copyright (c) Steve Scherf et al.
# Submitted via: dBpowerAMP V12.0
#
DISCID=930a0c0b
DTITLE=Various Artist - Wrangler Cowboy Christmas IX
DYEAR=2001
DGENRE=Country
TTITLE0=George Strait - I Know What I Want for Christmas
TTITLE1=Lee Ann Womack - The Nativity
TTITLE2=Toby Keith - Hot Rod Sleigh
TTITLE3=Vince Gill - It Won't Be the Same This Year
TTITLE4=Rebecca Lynn Howard - The First Noel
TTITLE5=Gary Allan - Up On the Housetop
TTITLE6=Steve Wariner - On Christmas Morning
TTITLE7=Kathy Mattea - Nothing But A Child
TTITLE8=Sammy Kershaw - Winter Wonderland
TTITLE9=Ricochet - My Christmas List
TTITLE10=DATA
EXTD=
EXTT0=
EXTT1=
EXTT2=
EXTT3=
EXTT4=
EXTT5=
EXTT6=
EXTT7=
EXTT8=
EXTT9=
EXTT10=
PLAYORDER=
